<mxfile host="app.diagrams.net" modified="2021-08-30T07:50:26.741Z" agent="5.0 (Windows NT 10.0; Win64; x64) AppleWebKit/537.36 (KHTML, like Gecko) Chrome/91.0.4472.106 Safari/537.36" etag="GF3p4VTKOLqWirnFcivm" version="14.9.6" type="github">
  <diagram id="C5RBs43oDa-KdzZeNtuy" name="Page-1">
    <mxGraphModel dx="1422" dy="762" grid="1" gridSize="10" guides="1" tooltips="1" connect="1" arrows="1" fold="1" page="1" pageScale="1" pageWidth="827" pageHeight="1169" background="#F4F1DE" math="0" shadow="0">
      <root>
        <mxCell id="WIyWlLk6GJQsqaUBKTNV-0" />
        <mxCell id="WIyWlLk6GJQsqaUBKTNV-1" parent="WIyWlLk6GJQsqaUBKTNV-0" />
        <mxCell id="pmRT2gzi2KQ4-Io1p5Z9-1" value="samples" style="swimlane;fontStyle=0;childLayout=stackLayout;horizontal=1;startSize=26;fillColor=none;horizontalStack=0;resizeParent=1;resizeParentMax=0;resizeLast=0;collapsible=1;marginBottom=0;strokeColor=#E07A5F;fontColor=#393C56;" vertex="1" parent="WIyWlLk6GJQsqaUBKTNV-1">
          <mxGeometry x="20" y="60" width="180" height="208" as="geometry">
            <mxRectangle x="140" y="120" width="70" height="26" as="alternateBounds" />
          </mxGeometry>
        </mxCell>
        <mxCell id="pmRT2gzi2KQ4-Io1p5Z9-2" value="ID&#xa;&#xa;sample&#xa;&#xa;&#xa;&#xa;&#xa;&#xa;&#xa;&#xa;&#xa;&#xa;&#xa;&#xa;&#xa;" style="text;strokeColor=none;fillColor=none;align=left;verticalAlign=top;spacingLeft=4;spacingRight=4;overflow=hidden;rotatable=0;points=[[0,0.5],[1,0.5]];portConstraint=eastwest;fontColor=#393C56;" vertex="1" parent="pmRT2gzi2KQ4-Io1p5Z9-1">
          <mxGeometry y="26" width="180" height="74" as="geometry" />
        </mxCell>
        <mxCell id="pmRT2gzi2KQ4-Io1p5Z9-3" value="GTs" style="text;strokeColor=none;fillColor=none;align=left;verticalAlign=top;spacingLeft=4;spacingRight=4;overflow=hidden;rotatable=0;points=[[0,0.5],[1,0.5]];portConstraint=eastwest;fontColor=#393C56;" vertex="1" parent="pmRT2gzi2KQ4-Io1p5Z9-1">
          <mxGeometry y="100" width="180" height="46" as="geometry" />
        </mxCell>
        <mxCell id="pmRT2gzi2KQ4-Io1p5Z9-4" value="LD&#xa;&#xa;path&#xa;" style="text;strokeColor=none;fillColor=none;align=left;verticalAlign=top;spacingLeft=4;spacingRight=4;overflow=hidden;rotatable=0;points=[[0,0.5],[1,0.5]];portConstraint=eastwest;fontColor=#393C56;" vertex="1" parent="pmRT2gzi2KQ4-Io1p5Z9-1">
          <mxGeometry y="146" width="180" height="62" as="geometry" />
        </mxCell>
        <mxCell id="pmRT2gzi2KQ4-Io1p5Z9-5" value="detail" style="swimlane;fontStyle=0;childLayout=stackLayout;horizontal=1;startSize=26;fillColor=none;horizontalStack=0;resizeParent=1;resizeParentMax=0;resizeLast=0;collapsible=1;marginBottom=0;strokeColor=#E07A5F;fontColor=#393C56;" vertex="1" parent="WIyWlLk6GJQsqaUBKTNV-1">
          <mxGeometry x="570" y="120" width="140" height="170" as="geometry" />
        </mxCell>
        <mxCell id="pmRT2gzi2KQ4-Io1p5Z9-6" value="batch" style="text;strokeColor=none;fillColor=none;align=left;verticalAlign=top;spacingLeft=4;spacingRight=4;overflow=hidden;rotatable=0;points=[[0,0.5],[1,0.5]];portConstraint=eastwest;fontColor=#393C56;" vertex="1" parent="pmRT2gzi2KQ4-Io1p5Z9-5">
          <mxGeometry y="26" width="140" height="26" as="geometry" />
        </mxCell>
        <mxCell id="pmRT2gzi2KQ4-Io1p5Z9-7" value="panel&#xa;&#xa;samplename&#xa;&#xa;contract_num&#xa;&#xa;other" style="text;strokeColor=none;fillColor=none;align=left;verticalAlign=top;spacingLeft=4;spacingRight=4;overflow=hidden;rotatable=0;points=[[0,0.5],[1,0.5]];portConstraint=eastwest;fontColor=#393C56;" vertex="1" parent="pmRT2gzi2KQ4-Io1p5Z9-5">
          <mxGeometry y="52" width="140" height="118" as="geometry" />
        </mxCell>
        <mxCell id="pmRT2gzi2KQ4-Io1p5Z9-9" value="dispatch" style="html=1;verticalAlign=bottom;startArrow=oval;startFill=1;endArrow=block;startSize=8;fontColor=#393C56;strokeColor=#E07A5F;fillColor=#F2CC8F;exitX=1;exitY=0.348;exitDx=0;exitDy=0;exitPerimeter=0;" edge="1" parent="WIyWlLk6GJQsqaUBKTNV-1" source="pmRT2gzi2KQ4-Io1p5Z9-3" target="pmRT2gzi2KQ4-Io1p5Z9-7">
          <mxGeometry width="60" relative="1" as="geometry">
            <mxPoint x="210" y="180" as="sourcePoint" />
            <mxPoint x="270" y="180" as="targetPoint" />
          </mxGeometry>
        </mxCell>
      </root>
    </mxGraphModel>
  </diagram>
</mxfile>
